<svg xmlns="http://www.w3.org/2000/svg" fill="none" viewBox="0 0 2016 1440"><path fill="url(#paint0_linear)" d="M0 0h2016v1440H0z"/><path fill="#F3F4F6" fill-rule="evenodd" d="M658.851 958.05c8.979 5.571 16.272 7.614 19.197 4.672 2.898-2.913.882-10.085-4.62-18.916a29.384 29.384 0 0 0 2.859-12.684c0-16.293-13.208-29.5-29.5-29.5-10.961 0-20.526 5.978-25.612 14.851a60.563 60.563 0 0 1-.959-1.681c-1.945-3.54-3.117-6.55-3.54-8.861-.438-2.398.023-3.43.417-3.826.395-.397 1.423-.864 3.824-.438 2.313.41 5.33 1.565 8.88 3.49.496.269.999.551 1.51.847a29.37 29.37 0 0 1 2.54-1.401c-8.67-5.259-15.674-7.129-18.526-4.261-2.88 2.896-.906 9.998 4.519 18.755a29.403 29.403 0 0 0-2.553 12.025c0 16.292 13.207 29.5 29.5 29.5 4.298 0 8.381-.92 12.064-2.572zm13.6 3.348c2.402.425 3.43-.042 3.824-.439.395-.396.856-1.427.417-3.826-.422-2.31-1.595-5.32-3.539-8.86a64.176 64.176 0 0 0-1.099-1.918 29.646 29.646 0 0 1-10.585 10.359 64.81 64.81 0 0 0 2.102 1.193c3.551 1.925 6.568 3.081 8.88 3.491zm-13.432-6.2c8.764-4.462 14.768-13.568 14.768-24.076 0-14.912-12.089-27-27-27-10.524 0-19.642 6.021-24.096 14.806 3.967 6.16 9.655 13.154 16.589 20.049 6.785 6.747 13.656 12.301 19.739 16.221zm-37.526-33.542c4.022 5.993 9.499 12.605 16.025 19.094 6.379 6.344 12.87 11.686 18.778 15.649a26.918 26.918 0 0 1-9.509 1.723c-14.912 0-27-12.089-27-27 0-3.331.603-6.521 1.706-9.466z" clip-rule="evenodd"/><path fill="#fff" fill-rule="evenodd" d="M1491 448.969c7.43.57 12.42 2.447 12.84 5.342.43 2.868-3.72 6.112-10.54 8.848a20.866 20.866 0 0 1-3.69 8.416c-6.82 9.28-19.84 11.296-29.08 4.503-6.21-4.569-9.13-11.962-8.3-19.136-.43.184-.84.37-1.25.558-2.58 1.205-4.51 2.431-5.71 3.571-1.26 1.183-1.43 1.962-1.37 2.353.06.39.44 1.085 1.98 1.844 1.49.73 3.68 1.33 6.5 1.714.39.053.8.102 1.21.147.25.631.54 1.251.85 1.857-7.12-.62-11.87-2.475-12.28-5.297-.42-2.85 3.67-6.073 10.41-8.798.61-2.776 1.8-5.474 3.59-7.913 6.83-9.28 19.85-11.296 29.08-4.503a20.492 20.492 0 0 1 5.76 6.494zm9.12 3.764c1.54.758 1.92 1.453 1.98 1.843.06.391-.11 1.17-1.37 2.354-1.2 1.139-3.13 2.365-5.71 3.57-.46.214-.94.425-1.43.634.33-3.52-.24-7.077-1.66-10.312.58.057 1.15.122 1.69.196 2.82.384 5.01.984 6.5 1.715zm-10.21-2.069a19.122 19.122 0 0 1-1.72 19.869c-6.24 8.493-18.16 10.338-26.61 4.122-5.97-4.388-8.62-11.618-7.46-18.479 4.83-1.855 10.98-3.467 17.8-4.503 6.67-1.014 12.89-1.313 17.99-1.009zm-35.33 3.459c4.79-1.737 10.67-3.219 17.08-4.195 6.28-.953 12.2-1.29 17.2-1.084a18.97 18.97 0 0 0-4.66-4.946c-8.46-6.216-20.37-4.371-26.62 4.122a19.057 19.057 0 0 0-3 6.103z" clip-rule="evenodd"/><path fill="#8393A8" fill-rule="evenodd" d="M233.438 192.252c-6.318-3.939-11.45-5.383-13.509-3.303-2.039 2.06-.62 7.13 3.252 13.374a20.847 20.847 0 0 0-2.012 8.967c0 11.519 9.294 20.857 20.759 20.857 7.713 0 14.444-4.227 18.023-10.5.237.402.462.799.675 1.188 1.368 2.503 2.193 4.631 2.491 6.265.308 1.695-.016 2.424-.294 2.705-.277.28-1.001.61-2.691.31-1.627-.29-3.75-1.107-6.249-2.468a44.46 44.46 0 0 1-1.062-.599c-.578.359-1.174.689-1.787.991 6.101 3.718 11.03 5.04 13.037 3.012 2.026-2.047.637-7.069-3.181-13.26a20.862 20.862 0 0 0 1.797-8.501c0-11.518-9.294-20.856-20.759-20.856-3.025 0-5.898.65-8.49 1.818zm-9.57-2.367c-1.69-.3-2.414.03-2.691.31-.278.281-.602 1.01-.294 2.705.298 1.634 1.123 3.762 2.491 6.265.243.443.5.895.773 1.355a20.913 20.913 0 0 1 7.449-7.323 46.332 46.332 0 0 0-1.479-.844c-2.499-1.361-4.622-2.178-6.249-2.468zm9.452 4.384a19.097 19.097 0 0 0-10.392 17.021c0 10.543 8.507 19.089 19 19.089 7.406 0 13.822-4.257 16.956-10.468-2.791-4.355-6.794-9.299-11.674-14.175-4.774-4.769-9.609-8.696-13.89-11.467zm26.407 23.714c-2.83-4.238-6.685-8.912-11.276-13.5-4.489-4.485-9.057-8.262-13.215-11.064a18.881 18.881 0 0 1 6.692-1.217c10.493 0 19 8.546 19 19.088 0 2.355-.424 4.61-1.201 6.693zM1906.82 900.638c3.3-6.675 4.23-11.924 1.96-13.768-2.25-1.827-7.16.083-12.99 4.549a20.88 20.88 0 0 0-9.13-1.121c-11.46 1.132-19.84 11.298-18.71 22.708.76 7.676 5.62 13.959 12.22 16.904-.38.275-.75.538-1.12.788-2.35 1.608-4.39 2.638-5.99 3.094-1.65.474-2.41.223-2.72-.026-.3-.248-.7-.936-.57-2.647.13-1.648.73-3.841 1.84-6.461.16-.366.32-.738.49-1.116-.41-.54-.8-1.101-1.16-1.682-3.1 6.437-3.93 11.472-1.72 13.27 2.24 1.816 7.1-.06 12.89-4.468 2.69.895 5.62 1.251 8.63.954 11.47-1.132 19.85-11.299 18.72-22.708-.3-3.01-1.23-5.806-2.64-8.27zm1.41-9.757c.13-1.711-.27-2.399-.57-2.647-.31-.249-1.07-.5-2.72-.027-1.6.457-3.64 1.487-5.99 3.095-.42.284-.84.585-1.27.902a20.851 20.851 0 0 1 8.01 6.693c.25-.53.48-1.049.7-1.555 1.11-2.62 1.71-4.813 1.84-6.461zm-3.43 9.837a19.106 19.106 0 0 0-17.96-8.669c-10.49 1.036-18.16 10.34-17.13 20.783.73 7.37 5.59 13.337 12.08 15.846 4.06-3.206 8.59-7.675 12.96-13.01 4.28-5.22 7.71-10.417 10.05-14.95zm-21.01 28.61c3.94-3.234 8.21-7.529 12.33-12.549 4.02-4.908 7.33-9.825 9.71-14.237a18.802 18.802 0 0 1 1.87 6.54c1.03 10.442-6.64 19.747-17.13 20.783-2.34.231-4.63.03-6.78-.537zM1304.56 1344.29c-7.28-1.55-12.6-1.16-13.82 1.5-1.22 2.63 1.84 6.91 7.61 11.46-.29 3 .07 6.1 1.16 9.12 3.93 10.83 15.85 16.44 26.63 12.54 7.25-2.63 12.14-8.9 13.36-16.02.36.3.71.6 1.04.89 2.14 1.89 3.64 3.61 4.48 5.04.87 1.49.81 2.29.65 2.64-.17.36-.74.92-2.43 1.21-1.63.29-3.9.24-6.71-.19-.4-.06-.8-.12-1.21-.2-.42.54-.87 1.05-1.34 1.54 7 1.42 12.09.98 13.28-1.61 1.21-2.61-1.81-6.86-7.5-11.38.2-2.84-.18-5.76-1.21-8.61-3.93-10.83-15.85-16.44-26.62-12.53a20.602 20.602 0 0 0-7.37 4.6zm-9.8 1.04c-1.69.29-2.26.85-2.43 1.21-.16.35-.22 1.15.65 2.64.84 1.43 2.34 3.15 4.48 5.04.38.33.77.67 1.18 1.01.69-3.47 2.24-6.72 4.51-9.42-.57-.11-1.13-.21-1.68-.29-2.81-.43-5.08-.48-6.71-.19zm10.38.9a19.1 19.1 0 0 0-3.97 19.54c3.59 9.91 14.5 15.05 24.37 11.47 6.96-2.52 11.54-8.71 12.37-15.61-4.11-3.15-9.56-6.43-15.81-9.35-6.11-2.86-11.99-4.91-16.96-6.05zm32.91 13.29c-4.11-3.01-9.33-6.1-15.21-8.84-5.74-2.69-11.33-4.69-16.19-5.9 1.69-1.45 3.66-2.63 5.88-3.43 9.86-3.57 20.77 1.56 24.36 11.47.81 2.22 1.18 4.48 1.16 6.7zM168.624 1225.48c-7.015 2.5-12.337 2.81-13.903.34-1.551-2.45.92-7.1 6.038-12.37a20.861 20.861 0 0 1-.045-9.19c2.465-11.25 13.543-18.39 24.742-15.93 7.534 1.65 13.205 7.22 15.358 14.11.317-.34.622-.68.913-1.01 1.873-2.16 3.134-4.06 3.774-5.59.665-1.59.504-2.37.293-2.71-.211-.33-.848-.81-2.563-.87-1.651-.07-3.9.27-6.632 1.07-.381.11-.77.23-1.166.36-.487-.48-.999-.93-1.534-1.35 6.756-2.33 11.853-2.57 13.38-.16 1.541 2.44-.89 7.05-5.945 12.28.573 2.78.584 5.73-.064 8.68-2.465 11.26-13.543 18.39-24.742 15.93a20.425 20.425 0 0 1-7.904-3.59zm-9.855.26c-1.715-.06-2.352-.54-2.563-.87-.211-.34-.372-1.12.293-2.71.64-1.53 1.901-3.43 3.774-5.59.331-.38.68-.76 1.045-1.15a20.878 20.878 0 0 0 5.708 8.74c-.555.19-1.097.36-1.625.51-2.732.8-4.981 1.14-6.632 1.07zm10.171-2.25a19.117 19.117 0 0 1-6.508-18.86c2.257-10.29 12.395-16.82 22.646-14.58 7.234 1.59 12.59 7.12 14.323 13.86-3.66 3.66-8.628 7.63-14.438 11.35-5.684 3.63-11.248 6.43-16.023 8.23zm30.871-17.52c-3.672 3.54-8.437 7.28-13.905 10.78-5.345 3.42-10.615 6.13-15.276 7.98a19.09 19.09 0 0 0 6.276 2.62c10.25 2.24 20.389-4.28 22.645-14.58.504-2.3.573-4.6.26-6.8z" clip-rule="evenodd"/><path fill="#F3F4F6" d="M482.448 568.291c3.978-1.993 8.303-3.921 12.775-5.832 2.541-1.086 5.133-2.168 7.731-3.253h.001c4.896-2.044 9.814-4.097 14.457-6.203 7.113-3.228 13.695-6.631 18.733-10.424 3.369-2.535 6.124-5.303 7.862-8.377a49.203 49.203 0 0 1 11.778 5.196c-48.467 16.595-65.283 47.952-70.189 64.013a49.29 49.29 0 0 1-4.992-21.688c0-4.656.642-9.161 1.844-13.432z"/><path fill="#F3F4F6" d="M483.456 565.121c6.824-19.172 25.133-32.898 46.648-32.898 3.956 0 7.804.464 11.492 1.341-1.524 2.468-3.868 4.82-6.894 7.098-4.821 3.629-11.207 6.945-18.282 10.155-4.612 2.093-9.467 4.119-14.338 6.153-2.607 1.088-5.22 2.178-7.802 3.282-3.72 1.59-7.371 3.204-10.824 4.869zM487.225 606.472a49.721 49.721 0 0 0 20.678 19.505c13.429-58.298 48.015-69.228 66.205-66.946a49.727 49.727 0 0 0-15.758-17.963c-51.699 17.032-67.399 50.887-71.125 65.404z"/><path fill="#F3F4F6" fill-rule="evenodd" d="M575.309 561.526l-.085.123c-16.023-2.744-50.635 5.526-64.548 63.028-.775.523-1.545 1.033-2.308 1.531a49.298 49.298 0 0 0 21.736 5.015c23.818 0 43.708-16.824 48.434-39.236-.501.265-.984.531-1.461.793-1.751.962-3.421 1.88-5.605 2.584-6.674 2.153-11.979 5.909-17.293 9.671-3.356 2.375-6.716 4.754-10.427 6.733-2.355 1.256-4.493 2.285-6.22 2.883-.861.298-1.676.51-2.397.571-.691.059-1.503-.002-2.154-.492-.532-.401-.79-.956-.877-1.536.974-.801 1.952-1.616 2.932-2.445l-.049.115-.026.061c-.356.851-.481 1.409-.492 1.741-.002.07 0 .12.004.155.071.014.212.031.459.01.438-.037 1.04-.179 1.814-.447 1.543-.535 3.545-1.49 5.877-2.734 3.747-1.998 7.143-4.388 10.536-6.776 5.383-3.789 10.757-7.571 17.506-9.771 1.31-.607 2.545-1.216 3.759-1.814l.001-.001c1.54-.759 3.048-1.502 4.635-2.205a50.208 50.208 0 0 0 .28-12.503c-2.605.061-5.488.439-9.362 1.604a39.873 39.873 0 0 0-4.874 1.827 243.213 243.213 0 0 0 3.246-3.831c.315-.103.627-.201.937-.294 3.942-1.186 7.025-1.603 9.747-1.695a49.11 49.11 0 0 0-3.725-12.665zm-40.657 38.633c10.497-13.646 18.145-18.906 26.34-22.502a252.892 252.892 0 0 1-4.388 4.995c-6.495 3.938-12.014 8.529-20.032 18.947-.557.801-1.063 1.549-1.521 2.246a275.569 275.569 0 0 1-5.303 4.557l.039-.096c.807-1.93 2.383-4.586 4.832-8.101l.016-.024.017-.022z" clip-rule="evenodd"/><path fill="#F3F4F6" d="M534.488 612.888s-.003-.003-.006-.013a.044.044 0 0 1 .006.013z"/><path fill="#fff" d="M587.936 536.767c1.07-4.636.487-7.496-.965-9.018-1.452-1.522-4.282-2.238-8.963-1.387-4.586.835-10.404 3.09-17.093 6.662a137.58 137.58 0 0 0-8.096 4.707c-.695-.36-1.4-.704-2.114-1.031 17.919-11.395 32.426-15.872 37.713-10.331 8.68 9.096-10.778 41.75-43.46 72.934-32.682 31.185-66.212 49.09-74.892 39.994-5.357-5.614.005-20.203 12.579-37.881.356.622.754 1.217 1.19 1.78a140.22 140.22 0 0 0-5.831 8.94c-3.882 6.514-6.408 12.22-7.456 16.762-1.07 4.636-.487 7.496.965 9.018 1.453 1.522 4.282 2.239 8.963 1.387 4.586-.834 10.405-3.09 17.093-6.662 13.352-7.13 29.76-19.281 46.008-34.785 16.249-15.503 29.155-31.324 36.904-44.327 3.881-6.514 6.407-12.22 7.455-16.762z"/><path fill="#EBEEF5" d="M1408.75 1194.9a53.654 53.654 0 0 0 2.25-15.4c0-1.62-.07-3.22-.21-4.81l-105.78 15.18c.59 3.03 1.44 5.96 2.52 8.77l101.22-3.74zM1407.99 1197.23l-99.53 3.68c3.99 9.14 10.47 16.95 18.58 22.58l76.41-16.57c1.82-3.05 3.35-6.29 4.54-9.69zM1401.7 1209.65l-71.94 15.6c8.09 4.92 17.58 7.75 27.74 7.75 18.36 0 34.57-9.25 44.2-23.35zM1304.61 1187.61a54.23 54.23 0 0 1-.02-16.09l95.46-24.46c5.51 7.22 9.23 15.9 10.48 25.35l-105.92 15.2zM1398.47 1145.09c-2.23-2.64-4.7-5.07-7.39-7.24l-79.29 13.83a53.355 53.355 0 0 0-6.77 17.36l93.45-23.95zM1313.51 1149.05l75.07-13.1a53.278 53.278 0 0 0-31.08-9.95c-18.23 0-34.33 9.12-43.99 23.05z"/><path fill="#C4CCD7" d="M1100.48 244.645c6.66-.764 12.64-2.439 18-5.32 7.2-3.869 13.21-9.865 18.29-18.559 3.9.9 7.51 2.56 10.66 4.817-1.67 1.722-3.24 3.691-4.76 5.798-1.89 2.621-3.74 5.502-5.61 8.453-.19.289-.37.58-.56.871-1.7 2.681-3.43 5.408-5.26 8.082-6.24 9.097-13.54 17.35-24.32 20.376A29.877 29.877 0 0 1 1100 250c0-1.828.16-3.617.48-5.355z"/><path fill="#C4CCD7" d="M1101.01 242.264c3.41-12.819 15.1-22.264 28.99-22.264 1.48 0 2.94.107 4.36.315-4.81 8.009-10.4 13.455-16.97 16.984-4.84 2.603-10.27 4.188-16.38 4.965zM1108.63 271.055a29.906 29.906 0 0 0 16.55 8.561c2.64-8.306 8.38-14.712 15.28-19.558 5.99-4.199 12.9-7.259 19.53-9.408.01-.216.01-.433.01-.65 0-9.235-4.17-17.496-10.74-22.999-1.61 1.638-3.17 3.571-4.73 5.727-1.84 2.558-3.66 5.384-5.53 8.338-.19.29-.37.581-.56.873-1.69 2.676-3.45 5.439-5.3 8.149-6.13 8.935-13.55 17.49-24.51 20.967z"/><path fill="#C4CCD7" d="M1159.84 253.122c-6.2 2.076-12.55 4.958-18.05 8.819-6.5 4.559-11.77 10.445-14.28 17.957.82.068 1.65.102 2.49.102 15.51 0 28.28-11.777 29.84-26.878z"/><path fill="#338DEF" d="M1592.74 1033.7c-1.85-13.39-13.34-23.7-27.24-23.7-1.22 0-2.42.08-3.6.23l30.84 23.47zM1559.23 1010.72a27.459 27.459 0 0 0-12.85 7.02l44.58 30.16c1.32-3.21 2.04-6.72 2.04-10.4 0-.37-.01-.74-.02-1.11l-33.75-25.67zM1590.13 1049.75l-45.16-30.55a27.426 27.426 0 0 0-5.22 8.63l35.42 35.42a27.59 27.59 0 0 0 14.96-13.5zM1573.04 1063.95l-33.99-33.99c-.69 2.4-1.05 4.93-1.05 7.54 0 2.33.29 4.59.83 6.74l31.35 20.36c.97-.16 1.93-.38 2.86-.65zM1567.06 1064.96l-27.28-17.72c3.93 10.38 13.96 17.76 25.72 17.76.52 0 1.04-.01 1.56-.04z"/><circle cx="779" cy="297" r="17" fill="#338DEF"/><circle cx="374" cy="1094" r="17" fill="#C4CCD7"/><circle cx="1817" cy="242" r="17" fill="#8393A8"/><path fill="#687386" fill-rule="evenodd" d="M1804 1274c7.18 0 13-5.82 13-13s-5.82-13-13-13-13 5.82-13 13 5.82 13 13 13zm0 4c9.39 0 17-7.61 17-17s-7.61-17-17-17-17 7.61-17 17 7.61 17 17 17z" clip-rule="evenodd"/><circle cx="799.965" cy="1277.99" r="23" fill="#EBEEF5"/><path fill="#fff" fill-rule="evenodd" d="M822.914 1279.54c.034-.52.051-1.03.051-1.55 0-12.71-10.297-23-23-23-12.702 0-23 10.29-23 23 0 12.7 10.298 23 23 23 .522 0 1.04-.02 1.553-.06-10.37-.74-18.553-9.39-18.553-19.94 0-11.05 8.955-20 20-20 10.559 0 19.207 8.18 19.949 18.55z" clip-rule="evenodd"/><path fill="#fff" d="M786.171 1257.16a.49.49 0 0 0-.03-.83c-5.396-3.15-9.578-4.23-11.308-2.52-3.533 3.5 4.497 17.34 17.936 30.91 13.438 13.58 27.197 21.75 30.73 18.26 1.67-1.66.757-5.62-2.088-10.77-.182-.33-.648-.34-.861-.03-.2.28-.406.57-.618.85-.242.32-.28.75-.094 1.11 1.029 1.97 1.691 3.64 1.999 4.96.195.84.222 1.43.175 1.82a1.3 1.3 0 0 1-.086.35c-.024.05-.041.07-.045.07-.004.01-.021.02-.075.05-.058.02-.169.06-.352.08-.383.04-.975.01-1.813-.19-1.681-.41-3.928-1.41-6.618-3-5.349-3.18-11.997-8.48-18.62-15.17-6.623-6.69-11.855-13.4-14.977-18.78-1.57-2.7-2.538-4.96-2.931-6.65-.195-.84-.222-1.43-.175-1.81a1.3 1.3 0 0 1 .086-.35c.024-.06.041-.07.045-.08.004 0 .021-.02.075-.04.058-.03.169-.06.352-.08.383-.05.975-.01 1.813.19 1.477.36 2.229.48 5.48 2.34.337.19.756.18 1.075-.05l.925-.64z"/><path fill="#C4CCD7" fill-rule="evenodd" d="M691.474 213.615l-2.93-5.615-2.929 5.615-5.615 2.929 5.615 2.93 2.929 5.614 2.93-5.614 5.614-2.93-5.614-2.929zm1.723 2.929l-3.058-1.595-1.595-3.058-1.595 3.058-3.058 1.595 3.058 1.595 1.595 3.058 1.595-3.058 3.058-1.595zM402.474 772.615l-2.93-5.615-2.929 5.615-5.615 2.929 5.615 2.93 2.929 5.614 2.93-5.614 5.614-2.93-5.614-2.929zm1.723 2.929l-3.058-1.595-1.595-3.058-1.595 3.058-3.058 1.595 3.058 1.595 1.595 3.058 1.595-3.058 3.058-1.595zM641.474 389.615l-2.93-5.615-2.929 5.615-5.615 2.929 5.615 2.93 2.929 5.614 2.93-5.614 5.614-2.93-5.614-2.929zm1.723 2.929l-3.058-1.595-1.595-3.058-1.595 3.058-3.058 1.595 3.058 1.595 1.595 3.058 1.595-3.058 3.058-1.595zM698.474 1116.61l-2.93-5.61-2.929 5.61-5.615 2.93 5.615 2.93 2.929 5.62 2.93-5.62 5.614-2.93-5.614-2.93zm1.723 2.93l-3.058-1.59-1.595-3.06-1.595 3.06-3.058 1.59 3.058 1.6 1.595 3.06 1.595-3.06 3.058-1.6zM1819.47 1108.61l-2.93-5.61-2.93 5.61-5.61 2.93 5.61 2.93 2.93 5.62 2.93-5.62 5.62-2.93-5.62-2.93zm1.73 2.93l-3.06-1.59-1.6-3.06-1.59 3.06-3.06 1.59 3.06 1.6 1.59 3.06 1.6-3.06 3.06-1.6zM1818.47 789.615l-2.93-5.615-2.93 5.615-5.61 2.929 5.61 2.93 2.93 5.614 2.93-5.614 5.62-2.93-5.62-2.929zm1.73 2.929l-3.06-1.595-1.6-3.058-1.59 3.058-3.06 1.595 3.06 1.595 1.59 3.058 1.6-3.058 3.06-1.595zM1411.47 604.615l-2.93-5.615-2.93 5.615-5.61 2.929 5.61 2.93 2.93 5.614 2.93-5.614 5.62-2.93-5.62-2.929zm1.73 2.929l-3.06-1.595-1.6-3.058-1.59 3.058-3.06 1.595 3.06 1.595 1.59 3.058 1.6-3.058 3.06-1.595zM1114.47 615.615l-2.93-5.615-2.93 5.615-5.61 2.929 5.61 2.93 2.93 5.614 2.93-5.614 5.62-2.93-5.62-2.929zm1.73 2.929l-3.06-1.595-1.6-3.058-1.59 3.058-3.06 1.595 3.06 1.595 1.59 3.058 1.6-3.058 3.06-1.595zM1025.47 291.615l-2.93-5.615-2.93 5.615-5.61 2.929 5.61 2.93 2.93 5.614 2.93-5.614 5.62-2.93-5.62-2.929zm1.73 2.929l-3.06-1.595-1.6-3.058-1.59 3.058-3.06 1.595 3.06 1.595 1.59 3.058 1.6-3.058 3.06-1.595zM1034.47 1258.61l-2.93-5.61-2.93 5.61-5.61 2.93 5.61 2.93 2.93 5.62 2.93-5.62 5.62-2.93-5.62-2.93zm1.73 2.93l-3.06-1.59-1.6-3.06-1.59 3.06-3.06 1.59 3.06 1.6 1.59 3.06 1.6-3.06 3.06-1.6zM1242.47 1107.61l-2.93-5.61-2.93 5.61-5.61 2.93 5.61 2.93 2.93 5.62 2.93-5.62 5.62-2.93-5.62-2.93zm1.73 2.93l-3.06-1.59-1.6-3.06-1.59 3.06-3.06 1.59 3.06 1.6 1.59 3.06 1.6-3.06 3.06-1.6zM811.474 853.615l-2.93-5.615-2.929 5.615-5.615 2.929 5.615 2.93 2.929 5.614 2.93-5.614 5.614-2.93-5.614-2.929zm1.723 2.929l-3.058-1.595-1.595-3.058-1.595 3.058-3.058 1.595 3.058 1.595 1.595 3.058 1.595-3.058 3.058-1.595zM1362.47 222.615l-2.93-5.615-2.93 5.615-5.61 2.929 5.61 2.93 2.93 5.614 2.93-5.614 5.62-2.93-5.62-2.929zm1.73 2.929l-3.06-1.595-1.6-3.058-1.59 3.058-3.06 1.595 3.06 1.595 1.59 3.058 1.6-3.058 3.06-1.595zM1554.47 1277.61l-2.93-5.61-2.93 5.61-5.61 2.93 5.61 2.93 2.93 5.62 2.93-5.62 5.62-2.93-5.62-2.93zm1.73 2.93l-3.06-1.59-1.6-3.06-1.59 3.06-3.06 1.59 3.06 1.6 1.59 3.06 1.6-3.06 3.06-1.6zM1669.16 553.843L1663.5 543l-5.66 10.843L1647 559.5l10.84 5.657L1663.5 576l5.66-10.843L1680 559.5l-10.84-5.657zm3.33 5.657l-5.91-3.081-3.08-5.904-3.08 5.904-5.91 3.081 5.91 3.081 3.08 5.904 3.08-5.904 5.91-3.081zM966.157 1079.84L960.5 1069l-5.657 10.84L944 1085.5l10.843 5.66L960.5 1102l5.657-10.84L977 1085.5l-10.843-5.66zm3.328 5.66l-5.904-3.08-3.081-5.91-3.081 5.91-5.905 3.08 5.905 3.08 3.081 5.91 3.081-5.91 5.904-3.08z" clip-rule="evenodd"/><path fill="#8393A8" fill-rule="evenodd" d="M350.157 1321.84L344.5 1311l-5.657 10.84L328 1327.5l10.843 5.66L344.5 1344l5.657-10.84L361 1327.5l-10.843-5.66zm3.328 5.66l-5.904-3.08-3.081-5.91-3.081 5.91-5.905 3.08 5.905 3.08 3.081 5.91 3.081-5.91 5.904-3.08zM310.157 569.843L304.5 559l-5.657 10.843L288 575.5l10.843 5.657L304.5 592l5.657-10.843L321 575.5l-10.843-5.657zm3.328 5.657l-5.904-3.081-3.081-5.904-3.081 5.904-5.905 3.081 5.905 3.081 3.081 5.904 3.081-5.904 5.904-3.081z" clip-rule="evenodd"/><path fill="#C4CCD7" fill-rule="evenodd" d="M901 224a1 1 0 1 0 0-2 1 1 0 0 0 0 2zm0 2a3 3 0 1 0 0-6 3 3 0 0 0 0 6zM835 380a1 1 0 1 0 0-2 1 1 0 0 0 0 2zm0 2a3 3 0 1 0 0-6 3 3 0 0 0 0 6zM432 334a1 1 0 1 0 0-2 1 1 0 0 0 0 2zm0 2a3 3 0 1 0 0-6 3 3 0 0 0 0 6zM765 110a1 1 0 1 0 0-2 1 1 0 0 0 0 2zm0 2a3 3 0 1 0 0-6 3 3 0 0 0 0 6zM520 132a1 1 0 1 0 0-2 1 1 0 0 0 0 2zm0 2a3 3 0 1 0 0-6 3 3 0 0 0 0 6zM1160 185c.55 0 1-.448 1-1s-.45-1-1-1-1 .448-1 1 .45 1 1 1zm0 2c1.66 0 3-1.343 3-3s-1.34-3-3-3-3 1.343-3 3 1.34 3 3 3zM1493 113c.55 0 1-.448 1-1s-.45-1-1-1-1 .448-1 1 .45 1 1 1zm0 2c1.66 0 3-1.343 3-3s-1.34-3-3-3-3 1.343-3 3 1.34 3 3 3zM1381 393c.55 0 1-.448 1-1s-.45-1-1-1-1 .448-1 1 .45 1 1 1zm0 2c1.66 0 3-1.343 3-3s-1.34-3-3-3-3 1.343-3 3 1.34 3 3 3zM1488 529c.55 0 1-.448 1-1s-.45-1-1-1-1 .448-1 1 .45 1 1 1zm0 2c1.66 0 3-1.343 3-3s-1.34-3-3-3-3 1.343-3 3 1.34 3 3 3zM1640 756c.55 0 1-.448 1-1s-.45-1-1-1-1 .448-1 1 .45 1 1 1zm0 2c1.66 0 3-1.343 3-3s-1.34-3-3-3-3 1.343-3 3 1.34 3 3 3zM1845 558c.55 0 1-.448 1-1s-.45-1-1-1-1 .448-1 1 .45 1 1 1zm0 2c1.66 0 3-1.343 3-3s-1.34-3-3-3-3 1.343-3 3 1.34 3 3 3zM1747 406c.55 0 1-.448 1-1s-.45-1-1-1-1 .448-1 1 .45 1 1 1zm0 2c1.66 0 3-1.343 3-3s-1.34-3-3-3-3 1.343-3 3 1.34 3 3 3zM1316 561c.55 0 1-.448 1-1s-.45-1-1-1-1 .448-1 1 .45 1 1 1zm0 2c1.66 0 3-1.343 3-3s-1.34-3-3-3-3 1.343-3 3 1.34 3 3 3zM1248 483c.55 0 1-.448 1-1s-.45-1-1-1-1 .448-1 1 .45 1 1 1zm0 2c1.66 0 3-1.343 3-3s-1.34-3-3-3-3 1.343-3 3 1.34 3 3 3zM1787 177c.55 0 1-.448 1-1s-.45-1-1-1-1 .448-1 1 .45 1 1 1zm0 2c1.66 0 3-1.343 3-3s-1.34-3-3-3-3 1.343-3 3 1.34 3 3 3zM1339 932c.55 0 1-.448 1-1s-.45-1-1-1-1 .448-1 1 .45 1 1 1zm0 2c1.66 0 3-1.343 3-3s-1.34-3-3-3-3 1.343-3 3 1.34 3 3 3zM1176 806c.55 0 1-.448 1-1s-.45-1-1-1-1 .448-1 1 .45 1 1 1zm0 2c1.66 0 3-1.343 3-3s-1.34-3-3-3-3 1.343-3 3 1.34 3 3 3zM1108 1120c.55 0 1-.45 1-1s-.45-1-1-1-1 .45-1 1 .45 1 1 1zm0 2c1.66 0 3-1.34 3-3s-1.34-3-3-3-3 1.34-3 3 1.34 3 3 3zM901 505a1 1 0 1 0 0-2 1 1 0 0 0 0 2zm0 2a3 3 0 1 0 0-6 3 3 0 0 0 0 6zM776 500a1 1 0 1 0 0-2 1 1 0 0 0 0 2zm0 2a3 3 0 1 0 0-6 3 3 0 0 0 0 6zM1381 1281c.55 0 1-.45 1-1s-.45-1-1-1-1 .45-1 1 .45 1 1 1zm0 2c1.66 0 3-1.34 3-3s-1.34-3-3-3-3 1.34-3 3 1.34 3 3 3zM526 1293c.552 0 1-.45 1-1s-.448-1-1-1-1 .45-1 1 .448 1 1 1zm0 2c1.657 0 3-1.34 3-3s-1.343-3-3-3-3 1.34-3 3 1.343 3 3 3zM219 900a1 1 0 1 0 0-2 1 1 0 0 0 0 2zm0 2a3 3 0 1 0 0-6 3 3 0 0 0 0 6zM222 301a3 3 0 1 0 0-6 3 3 0 0 0 0 6zm0 2a5 5 0 1 0-.001-10.001A5 5 0 0 0 222 303zM502 510a3 3 0 1 0 0-6 3 3 0 0 0 0 6zm0 2a5 5 0 1 0-.001-10.001A5 5 0 0 0 502 512zM715 627a3 3 0 1 0 0-6 3 3 0 0 0 0 6zm0 2a5 5 0 1 0-.001-10.001A5 5 0 0 0 715 629zM1103 971c1.66 0 3-1.343 3-3s-1.34-3-3-3-3 1.343-3 3 1.34 3 3 3zm0 2a5.001 5.001 0 0 0 0-10 5.001 5.001 0 0 0 0 10zM536 816a3 3 0 1 0 0-6 3 3 0 0 0 0 6zm0 2a5 5 0 1 0-.001-10.001A5 5 0 0 0 536 818zM247 1147c1.657 0 3-1.34 3-3s-1.343-3-3-3-3 1.34-3 3 1.343 3 3 3zm0 2a5.001 5.001 0 0 0 0-10 5.001 5.001 0 0 0 0 10zM1790 1323c1.66 0 3-1.34 3-3s-1.34-3-3-3-3 1.34-3 3 1.34 3 3 3zm0 2c2.76 0 5-2.24 5-5s-2.24-5-5-5-5 2.24-5 5 2.24 5 5 5zM1955 1163c1.66 0 3-1.34 3-3s-1.34-3-3-3-3 1.34-3 3 1.34 3 3 3zm0 2c2.76 0 5-2.24 5-5s-2.24-5-5-5-5 2.24-5 5 2.24 5 5 5zM1685 942c1.66 0 3-1.343 3-3s-1.34-3-3-3-3 1.343-3 3 1.34 3 3 3zm0 2a5.001 5.001 0 0 0 0-10 5.001 5.001 0 0 0 0 10zM1581 446c1.66 0 3-1.343 3-3s-1.34-3-3-3-3 1.343-3 3 1.34 3 3 3zm0 2a5.001 5.001 0 0 0 0-10 5.001 5.001 0 0 0 0 10z" clip-rule="evenodd"/><path fill="#fff" fill-rule="evenodd" d="M1222 344c1.1 0 2-.895 2-2s-.9-2-2-2-2 .895-2 2 .9 2 2 2zM1058 432c1.1 0 2-.895 2-2s-.9-2-2-2-2 .895-2 2 .9 2 2 2zM366 456a2 2 0 1 0 .001-3.999A2 2 0 0 0 366 456zM194 474a2 2 0 1 0 .001-3.999A2 2 0 0 0 194 474zM80 232a2 2 0 1 0 0-4 2 2 0 0 0 0 4zM366 131a2 2 0 1 0 .001-3.999A2 2 0 0 0 366 131zM70 728a2 2 0 1 0 0-4 2 2 0 0 0 0 4zM170 1060c1.105 0 2-.9 2-2s-.895-2-2-2-2 .9-2 2 .895 2 2 2zM112 1360c1.105 0 2-.9 2-2s-.895-2-2-2-2 .9-2 2 .895 2 2 2zM1194 1372c1.1 0 2-.9 2-2s-.9-2-2-2-2 .9-2 2 .9 2 2 2zM834 1060c1.105 0 2-.9 2-2s-.895-2-2-2-2 .9-2 2 .895 2 2 2zM750 948a2 2 0 1 0 .001-3.999A2 2 0 0 0 750 948zM514 1036c1.105 0 2-.9 2-2s-.895-2-2-2-2 .9-2 2 .895 2 2 2zM722 773a2 2 0 1 0 .001-3.999A2 2 0 0 0 722 773zM858 646a2 2 0 1 0 .001-3.999A2 2 0 0 0 858 646zM979 876a2 2 0 1 0 .001-3.999A2 2 0 0 0 979 876zM1650 1128c1.1 0 2-.9 2-2s-.9-2-2-2-2 .9-2 2 .9 2 2 2zM1928 696c1.1 0 2-.895 2-2s-.9-2-2-2-2 .895-2 2 .9 2 2 2zM1637 1359c1.1 0 2-.9 2-2s-.9-2-2-2-2 .9-2 2 .9 2 2 2zM1942 1388c1.1 0 2-.9 2-2s-.9-2-2-2-2 .9-2 2 .9 2 2 2zM1924 399c1.1 0 2-.895 2-2s-.9-2-2-2-2 .895-2 2 .9 2 2 2zM1330 706c1.1 0 2-.895 2-2s-.9-2-2-2-2 .895-2 2 .9 2 2 2z" clip-rule="evenodd"/><path fill="url(#paint1_linear)" d="M1471.56 288.276a2.79 2.79 0 0 1 .63-3.203l60.03-56.529a5 5 0 0 1 7.18.336l.66.752a4.997 4.997 0 0 1-.57 7.162l-63.61 52.473c-1.41 1.168-3.55.678-4.32-.991z"/><path fill="#fff" d="M1475 286.212c0 .17.16.17.16.17l2.17 1.188c.33.17.33.68 0 .849l-2.33 1.359-.17.17-1.33 2.377c-.17.34-.67.34-.84 0l-1.33-2.377-.17-.17-2.33-1.359c-.33-.169-.33-.679 0-.849l2.17-1.188c.16 0 .16-.17.16-.17l1.34-2.377c.16-.34.66-.34.83 0l1.67 2.377z"/><path fill="url(#paint2_linear)" d="M1166.56 1274.28c-.5-1.09-.25-2.38.63-3.21l60.03-56.53a5.008 5.008 0 0 1 7.18.34l.66.75a4.994 4.994 0 0 1-.57 7.16l-63.61 52.48c-1.41 1.16-3.55.67-4.32-.99z"/><path fill="#fff" d="M1170 1272.21c0 .17.16.17.16.17l2.17 1.19c.33.17.33.68 0 .85l-2.33 1.36-.17.17-1.33 2.38c-.17.33-.67.33-.84 0l-1.33-2.38-.17-.17-2.33-1.36c-.33-.17-.33-.68 0-.85l2.17-1.19c.16 0 .16-.17.16-.17l1.34-2.38c.16-.34.66-.34.83 0l1.67 2.38z"/><path fill="url(#paint3_linear)" d="M307.563 919.276a2.797 2.797 0 0 1 .625-3.203l60.031-56.529a5 5 0 0 1 7.18.336l.662.752a5 5 0 0 1-.57 7.162l-63.606 52.473a2.798 2.798 0 0 1-4.322-.991z"/><path fill="#fff" d="M310.997 917.212c0 .17.167.17.167.17l2.166 1.188c.334.17.334.68 0 .849l-2.333 1.359-.167.17-1.333 2.377a.468.468 0 0 1-.833 0l-1.334-2.377-.166-.17-2.334-1.359c-.333-.169-.333-.679 0-.849l2.167-1.188c.167 0 .167-.17.167-.17l1.333-2.377a.468.468 0 0 1 .833 0l1.667 2.377z"/><path fill="#C4CCD7" fill-rule="evenodd" d="M1417.21 815.162c-.13-1.297-.2-2.614-.21-3.945V811c0-12.314 5.56-23.328 14.32-30.665.78-.661 1.6-1.292 2.44-1.892.63-.452 1.27-.886 1.93-1.302A39.85 39.85 0 0 1 1457 771c17.64 0 32.61 11.419 37.93 27.269.27.795.51 1.601.73 2.417.27 1.042.51 2.101.7 3.174.42 2.317.64 4.703.64 7.14a39.833 39.833 0 0 1-11.51 28.073c-.61.619-1.24 1.218-1.88 1.796A39.879 39.879 0 0 1 1457 851c-19.8 0-36.25-14.393-39.44-33.29-.14-.841-.26-1.69-.35-2.548zm42.28 33.457a37.97 37.97 0 0 0 3.16-.34c-3.78-10.01-11.01-17.843-19.6-23.868-7.29-5.11-15.59-8.954-23.71-11.766.04 1.132.14 2.251.29 3.355 7.48 2.691 15.03 6.274 21.66 10.922 8 5.617 14.61 12.744 18.2 21.697zm-27.23-9.174c-6.12-5.324-10.5-12.589-12.19-20.835 6.93 2.584 13.83 5.94 19.9 10.195 7.51 5.271 13.62 11.822 17.07 19.895h-.02-.02a37.565 37.565 0 0 1-24.74-9.255zm-12.95-29.24c8.51 2.883 17.32 6.895 25.06 12.323 8.96 6.285 16.63 14.584 20.58 25.332a37.537 37.537 0 0 0 16.21-7.917c-13.39-5.497-22.67-16.494-30.24-27.525-2.5-3.647-4.85-7.361-7.11-10.918l-.01-.017c-.25-.389-.49-.776-.74-1.162-2.5-3.942-4.88-7.656-7.3-11.003-1.54-2.129-3.06-4.064-4.59-5.777-7.13 6.707-11.64 16.157-11.86 26.664zm13.58-28.189c1.6 1.789 3.17 3.787 4.73 5.955 2.47 3.411 4.88 7.179 7.38 11.117.25.387.49.774.74 1.164 2.26 3.568 4.6 7.252 7.08 10.865 7.71 11.245 16.95 22.037 30.25 27.112.81-.774 1.59-1.583 2.32-2.425-13.09-4.531-22.19-14.975-30.04-26.422-2.45-3.564-4.75-7.201-7.02-10.776-.25-.388-.49-.775-.74-1.161-2.49-3.934-4.96-7.775-7.48-11.27-1.55-2.137-3.13-4.168-4.78-6.029-.84.591-1.65 1.215-2.44 1.87zm4.38-3.148c1.64 1.866 3.2 3.876 4.7 5.96 2.57 3.558 5.07 7.454 7.56 11.384.25.387.5.775.74 1.162 2.27 3.58 4.56 7.183 6.97 10.708 7.97 11.607 16.93 21.698 29.71 25.818a37.534 37.534 0 0 0 7.75-22.9c0-.668-.02-1.333-.05-1.992a38.943 38.943 0 0 0-.29-3.079c-8.43-1.13-16.11-3.386-23.09-7.136-9.61-5.164-17.63-13.02-24.39-24.119a37.56 37.56 0 0 0-9.61 4.194zm11.96-4.766c6.5 10.476 14.11 17.821 23.13 22.665 6.5 3.492 13.67 5.655 21.6 6.785a34.686 34.686 0 0 0-.79-3.22c-7.15-1.131-13.57-3.153-19.36-6.266-8.16-4.385-15.19-10.985-21.29-20.502-1.12.132-2.21.312-3.29.538zm5.89-.756c5.77 8.682 12.3 14.677 19.78 18.693 5.21 2.802 10.99 4.697 17.45 5.824-5-13.447-17.46-23.27-32.34-24.445a38.436 38.436 0 0 0-4.89-.072z" clip-rule="evenodd"/><path fill="#687386" fill-rule="evenodd" d="M81.5 731a32.957 32.957 0 0 0 4.725-.341 32.303 32.303 0 0 0 14.162-5.707c.681-.487 1.342-1 1.982-1.537C109.478 717.454 114 708.505 114 698.5v-.176a32.923 32.923 0 0 0-.455-5.275C110.951 677.695 97.592 666 81.5 666a31.894 31.894 0 0 0-2.695.11 32.387 32.387 0 0 0-20.457 9.581 32.643 32.643 0 0 0-1.854 2.049A32.369 32.369 0 0 0 49 698.5a32.704 32.704 0 0 0 1.09 8.38c.177.663.374 1.318.59 1.964C55.002 721.721 67.167 731 81.5 731zm-14.555-16.891c5.686 3.054 10.69 7.561 15.14 14.045a29.895 29.895 0 0 1-2.951-.087c-11.404-.9-20.995-8.251-25.122-18.405 4.769.909 9.052 2.362 12.933 4.447zm2.032-3.782c6.95 3.733 12.855 9.35 17.93 17.341a28.93 28.93 0 0 1-1.57.246c-4.886-7.533-10.51-12.795-17.047-16.307-4.609-2.475-9.695-4.094-15.333-5.016a29.125 29.125 0 0 1-.39-1.533c6.016.923 11.465 2.612 16.41 5.269zm24.14 9.404a67.304 67.304 0 0 0 3.4 4.352 29.447 29.447 0 0 1-6.694 2.893c-5.405-8.772-11.815-15.022-19.502-19.151-5.54-2.977-11.621-4.785-18.263-5.712a29.86 29.86 0 0 1-.191-4.878 29.508 29.508 0 0 1 5.856-16.468c9.883 3.309 16.884 11.188 23.169 20.351 1.928 2.811 3.751 5.685 5.568 8.55l.59.93c1.996 3.143 4 6.272 6.067 9.133zm3.48-2.515c1.148 1.588 2.3 3.068 3.473 4.413-.378.304-.764.599-1.157.885a63.29 63.29 0 0 1-3.494-4.447c-2.01-2.782-3.973-5.843-5.971-8.991l-.566-.892-.025-.04c-1.813-2.857-3.662-5.774-5.623-8.633-6.153-8.972-13.328-17.27-23.579-21.074.358-.389.725-.769 1.103-1.138 10.334 4.049 17.576 12.498 23.675 21.39 1.976 2.882 3.84 5.822 5.651 8.678l.027.041.564.889c2 3.15 3.941 6.177 5.922 8.919zm-5.279-27.529c6.134 4.302 13.092 7.495 19.826 9.804-.261 7.935-3.638 15.081-8.948 20.255a58.762 58.762 0 0 1-3.297-4.193c-1.924-2.664-3.824-5.623-5.826-8.778l-.59-.929-.01-.017c-1.804-2.844-3.692-5.821-5.698-8.746-5.921-8.633-13.2-17.32-23.641-21.874a29.528 29.528 0 0 1 11.689-5.614c3.247 8.52 9.384 15.103 16.495 20.092zm19.622 5.179c.064.529.115 1.062.151 1.599-6.24-2.215-12.57-5.195-18.142-9.103-6.645-4.662-12.237-10.667-15.277-18.277a29.85 29.85 0 0 1 1.507-.156c2.949 7.118 8.245 12.781 14.605 17.243 5.26 3.69 11.231 6.543 17.156 8.694zm-9.974-18.745a29.644 29.644 0 0 1 9.391 15.496c-5.226-2.009-10.384-4.573-14.942-7.77-5.737-4.024-10.412-8.969-13.173-14.998a29.554 29.554 0 0 1 18.724 7.272z" clip-rule="evenodd"/><defs><linearGradient id="paint0_linear" x1="1494" x2="2114.5" y1="696" y2="3712.5" gradientUnits="userSpaceOnUse"><stop stop-color="#232A32"/><stop offset=".818" stop-color="#0059BA"/><stop offset=".974" stop-color="#338DEF"/></linearGradient><linearGradient id="paint1_linear" x1="1472.36" x2="1517.96" y1="290.481" y2="248.734" gradientUnits="userSpaceOnUse"><stop stop-color="#EBEEF5"/><stop offset="1" stop-color="#232A32" stop-opacity="0"/></linearGradient><linearGradient id="paint2_linear" x1="1167.36" x2="1212.96" y1="1276.48" y2="1234.73" gradientUnits="userSpaceOnUse"><stop stop-color="#EBEEF5"/><stop offset="1" stop-color="#232A32" stop-opacity="0"/></linearGradient><linearGradient id="paint3_linear" x1="308.361" x2="353.964" y1="921.481" y2="879.734" gradientUnits="userSpaceOnUse"><stop stop-color="#EBEEF5"/><stop offset="1" stop-color="#232A32" stop-opacity="0"/></linearGradient></defs></svg>